<svg xmlns="http://www.w3.org/2000/svg" xmlns:xlink="http://www.w3.org/1999/xlink" width="2000" zoomAndPan="magnify" viewBox="0 0 1500 607.92" height="800" preserveAspectRatio="xMidYMid meet" version="1.0"><defs><g/><clipPath id="679dd32b0e"><path d="M 0 0 L 1500 0 L 1500 607.92 L 0 607.92 Z M 0 0 " clip-rule="nonzero"/></clipPath></defs><rect x="0" y="0" width="1500" height="607.92" fill="#ffffff"/><g clip-path="url(#679dd32b0e)"><path fill="#ffffff" d="M 0 0 L 1500 0 L 1500 607.92 L 0 607.92 Z M 0 0 " fill-opacity="1" fill-rule="nonzero"/></g><g fill="#ff751f" fill-opacity="1"><g transform="translate(83.958739, 413.639944)"><g><path d="M 58.25 -178.984375 C 54.582031 -179.148438 51.789062 -178.816406 49.875 -177.984375 C 47.957031 -177.148438 47 -174.316406 47 -169.484375 L 47 -122.234375 C 47 -116.566406 46.375 -110.273438 45.125 -103.359375 C 43.875 -96.441406 40.582031 -90.734375 35.25 -86.234375 C 38.75 -83.398438 41.332031 -79.898438 43 -75.734375 C 44.664062 -71.566406 45.75 -67.273438 46.25 -62.859375 C 46.75 -58.453125 47 -54.332031 47 -50.5 L 47 -4.5 C 47 0.332031 47.957031 3.207031 49.875 4.125 C 51.789062 5.039062 54.582031 5.414062 58.25 5.25 L 64.484375 5.25 L 64.484375 27.25 L 52 27.25 C 42.664062 27.25 35.5 24.457031 30.5 18.875 C 25.5 13.289062 23 6 23 -3 L 23 -46 C 23 -50.832031 22.539062 -55.453125 21.625 -59.859375 C 20.707031 -64.273438 19.125 -67.898438 16.875 -70.734375 C 14.625 -73.566406 11.332031 -74.984375 7 -74.984375 L 7 -97.734375 C 11.332031 -97.734375 14.625 -99.109375 16.875 -101.859375 C 19.125 -104.609375 20.707031 -108.234375 21.625 -112.734375 C 22.539062 -117.234375 23 -121.898438 23 -126.734375 L 23 -170.484375 C 23 -179.648438 25.5 -187.019531 30.5 -192.59375 C 35.5 -198.175781 42.664062 -200.96875 52 -200.96875 L 64.484375 -200.96875 L 64.484375 -178.984375 Z M 58.25 -178.984375 "/></g></g></g><g fill="#ff751f" fill-opacity="1"><g transform="translate(158.948867, 413.639944)"><g/></g></g><g fill="#ff751f" fill-opacity="1"><g transform="translate(221.189941, 413.639944)"><g/></g></g><g fill="#ff751f" fill-opacity="1"><g transform="translate(283.431015, 413.639944)"><g/></g></g><g fill="#ff751f" fill-opacity="1"><g transform="translate(345.672089, 413.639944)"><g/></g></g><g fill="#ff751f" fill-opacity="1"><g transform="translate(407.913163, 413.639944)"><g/></g></g><g fill="#ff751f" fill-opacity="1"><g transform="translate(470.154237, 413.639944)"><g/></g></g><g fill="#ff751f" fill-opacity="1"><g transform="translate(532.395311, 413.639944)"><g/></g></g><g fill="#ff751f" fill-opacity="1"><g transform="translate(594.636385, 413.639944)"><g/></g></g><g fill="#ff751f" fill-opacity="1"><g transform="translate(656.877459, 413.639944)"><g/></g></g><g fill="#ff751f" fill-opacity="1"><g transform="translate(719.118533, 413.639944)"><g/></g></g><g fill="#ff751f" fill-opacity="1"><g transform="translate(781.359607, 413.639944)"><g/></g></g><g fill="#ff751f" fill-opacity="1"><g transform="translate(843.600681, 413.639944)"><g/></g></g><g fill="#ff751f" fill-opacity="1"><g transform="translate(905.841755, 413.639944)"><g/></g></g><g fill="#ff751f" fill-opacity="1"><g transform="translate(968.082829, 413.639944)"><g/></g></g><g fill="#ff751f" fill-opacity="1"><g transform="translate(1030.323903, 413.639944)"><g/></g></g><g fill="#ff751f" fill-opacity="1"><g transform="translate(1092.564977, 413.639944)"><g/></g></g><g fill="#ff751f" fill-opacity="1"><g transform="translate(1154.806051, 413.639944)"><g/></g></g><g fill="#ff751f" fill-opacity="1"><g transform="translate(1217.047124, 413.639944)"><g/></g></g><g fill="#ff751f" fill-opacity="1"><g transform="translate(1279.288198, 413.639944)"><g/></g></g><g fill="#ff751f" fill-opacity="1"><g transform="translate(1341.531479, 413.639944)"><g><path d="M 15.75 -200.46875 C 25.082031 -200.46875 32.207031 -197.675781 37.125 -192.09375 C 42.039062 -186.519531 44.5 -179.148438 44.5 -169.984375 L 44.5 -126.734375 C 44.5 -121.898438 44.957031 -117.234375 45.875 -112.734375 C 46.789062 -108.234375 48.457031 -104.609375 50.875 -101.859375 C 53.289062 -99.109375 56.582031 -97.734375 60.75 -97.734375 L 60.75 -74.984375 C 56.582031 -74.984375 53.289062 -73.566406 50.875 -70.734375 C 48.457031 -67.898438 46.789062 -64.273438 45.875 -59.859375 C 44.957031 -55.453125 44.5 -50.832031 44.5 -46 L 44.5 -5.25 C 44.5 3.75 42.039062 11.039062 37.125 16.625 C 32.207031 22.207031 25.082031 25 15.75 25 L 3 25 L 3 3 L 9.25 3 C 12.914062 3.164062 15.707031 2.789062 17.625 1.875 C 19.539062 0.957031 20.5 -1.914062 20.5 -6.75 L 20.5 -50.5 C 20.5 -54.332031 20.75 -58.453125 21.25 -62.859375 C 21.75 -67.273438 22.832031 -71.566406 24.5 -75.734375 C 26.164062 -79.898438 28.75 -83.398438 32.25 -86.234375 C 27.082031 -90.734375 23.832031 -96.441406 22.5 -103.359375 C 21.164062 -110.273438 20.5 -116.566406 20.5 -122.234375 L 20.5 -168.984375 C 20.5 -173.816406 19.539062 -176.648438 17.625 -177.484375 C 15.707031 -178.316406 12.914062 -178.648438 9.25 -178.484375 L 3 -178.484375 L 3 -200.46875 Z M 15.75 -200.46875 "/></g></g></g><g fill="#000000" fill-opacity="1"><g transform="translate(242.56286, 413.639944)"><g><path d="M 84.234375 -176.484375 C 98.566406 -176.484375 111.109375 -173.941406 121.859375 -168.859375 C 132.609375 -163.773438 141.566406 -156.941406 148.734375 -148.359375 C 155.898438 -139.773438 161.273438 -130.191406 164.859375 -119.609375 C 168.441406 -109.023438 170.234375 -98.234375 170.234375 -87.234375 C 170.234375 -76.234375 168.441406 -65.566406 164.859375 -55.234375 C 161.273438 -44.910156 155.898438 -35.582031 148.734375 -27.25 C 141.566406 -18.914062 132.609375 -12.289062 121.859375 -7.375 C 111.109375 -2.457031 98.566406 0 84.234375 0 L 21.5 0 L 21.5 -176.484375 Z M 84.234375 -25.25 C 97.734375 -25.25 109.023438 -28.25 118.109375 -34.25 C 127.191406 -40.25 133.984375 -47.992188 138.484375 -57.484375 C 142.984375 -66.984375 145.234375 -76.898438 145.234375 -87.234375 C 145.234375 -95.066406 143.941406 -102.734375 141.359375 -110.234375 C 138.773438 -117.734375 134.941406 -124.609375 129.859375 -130.859375 C 124.773438 -137.109375 118.441406 -142.066406 110.859375 -145.734375 C 103.273438 -149.398438 94.398438 -151.234375 84.234375 -151.234375 L 46.75 -151.234375 L 46.75 -25.25 Z M 84.234375 -25.25 "/></g></g></g><g fill="#000000" fill-opacity="1"><g transform="translate(423.786869, 413.639944)"><g><path d="M 85.234375 -88.734375 C 92.398438 -88.734375 98.316406 -90.234375 102.984375 -93.234375 C 107.648438 -96.234375 111.148438 -100.066406 113.484375 -104.734375 C 115.816406 -109.398438 116.984375 -114.234375 116.984375 -119.234375 C 116.984375 -124.234375 115.816406 -129.234375 113.484375 -134.234375 C 111.148438 -139.234375 107.648438 -143.398438 102.984375 -146.734375 C 98.316406 -150.066406 92.398438 -151.734375 85.234375 -151.734375 L 46.5 -151.734375 L 46.5 0 L 21.5 0 L 21.5 -177.234375 L 85.234375 -177.234375 C 94.734375 -177.234375 103.066406 -175.523438 110.234375 -172.109375 C 117.398438 -168.691406 123.359375 -164.191406 128.109375 -158.609375 C 132.859375 -153.023438 136.398438 -146.816406 138.734375 -139.984375 C 141.066406 -133.148438 142.234375 -126.234375 142.234375 -119.234375 C 142.234375 -111.066406 140.566406 -103.191406 137.234375 -95.609375 C 133.898438 -88.023438 128.859375 -81.609375 122.109375 -76.359375 C 115.359375 -71.109375 106.984375 -67.566406 96.984375 -65.734375 L 152.234375 0 L 119.484375 0 L 55.75 -76.734375 L 55.75 -88.734375 Z M 85.234375 -88.734375 "/></g></g></g><g fill="#000000" fill-opacity="1"><g transform="translate(572.765513, 413.639944)"><g><path d="M 128.234375 -25.25 L 128.234375 0 L 21.5 0 L 21.5 -176.734375 L 127.984375 -176.734375 L 127.984375 -151.484375 L 47 -151.484375 L 47 -102.234375 L 126.234375 -102.234375 L 126.234375 -76.734375 L 47 -76.734375 L 47 -25.25 Z M 128.234375 -25.25 "/></g></g></g><g fill="#000000" fill-opacity="1"><g transform="translate(712.245525, 413.639944)"><g><path d="M 79.234375 -153.234375 L 79.234375 -23.5 L 111.734375 -23.5 L 111.734375 0 L 21.5 0 L 21.5 -23.5 L 54 -23.5 L 54 -153.234375 L 21.5 -153.234375 L 21.5 -176.484375 L 111.734375 -176.484375 L 111.734375 -153.234375 Z M 79.234375 -153.234375 "/></g></g></g><g fill="#000000" fill-opacity="1"><g transform="translate(845.226449, 413.639944)"><g><path d="M 75.484375 1.75 C 64.328125 1.75 54.582031 -0.75 46.25 -5.75 C 37.914062 -10.75 30.957031 -17.5 25.375 -26 C 19.789062 -34.5 15.625 -44.035156 12.875 -54.609375 C 10.125 -65.191406 8.75 -76.066406 8.75 -87.234375 C 8.75 -98.398438 10.125 -109.316406 12.875 -119.984375 C 15.625 -130.648438 19.789062 -140.234375 25.375 -148.734375 C 30.957031 -157.234375 37.914062 -164.023438 46.25 -169.109375 C 54.582031 -174.191406 64.328125 -176.734375 75.484375 -176.734375 C 86.648438 -176.734375 96.398438 -174.191406 104.734375 -169.109375 C 113.066406 -164.023438 120.023438 -157.234375 125.609375 -148.734375 C 131.191406 -140.234375 135.398438 -130.648438 138.234375 -119.984375 C 141.066406 -109.316406 142.484375 -98.398438 142.484375 -87.234375 C 142.484375 -76.066406 141.066406 -65.191406 138.234375 -54.609375 C 135.398438 -44.035156 131.191406 -34.5 125.609375 -26 C 120.023438 -17.5 113.066406 -10.75 104.734375 -5.75 C 96.398438 -0.75 86.648438 1.75 75.484375 1.75 Z M 75.484375 -151.734375 C 65.992188 -151.734375 58.289062 -148.773438 52.375 -142.859375 C 46.457031 -136.941406 42.082031 -129.109375 39.25 -119.359375 C 36.414062 -109.609375 35 -98.898438 35 -87.234375 C 35 -76.234375 36.414062 -65.859375 39.25 -56.109375 C 42.082031 -46.367188 46.457031 -38.414062 52.375 -32.25 C 58.289062 -26.082031 65.992188 -23 75.484375 -23 C 84.984375 -23 92.734375 -26.082031 98.734375 -32.25 C 104.734375 -38.414062 109.191406 -46.367188 112.109375 -56.109375 C 115.023438 -65.859375 116.484375 -76.234375 116.484375 -87.234375 C 116.484375 -98.898438 115.023438 -109.609375 112.109375 -119.359375 C 109.191406 -129.109375 104.734375 -136.941406 98.734375 -142.859375 C 92.734375 -148.773438 84.984375 -151.734375 75.484375 -151.734375 Z M 75.484375 -151.734375 "/></g></g></g><g fill="#000000" fill-opacity="1"><g transform="translate(1003.70374, 413.639944)"><g><path d="M 48.5 -129.984375 L 22.25 -95.484375 L 6 -108.484375 L 53.25 -174.984375 L 73.484375 -174.984375 L 73.484375 0 L 48.5 0 Z M 48.5 -129.984375 "/></g></g></g><g fill="#000000" fill-opacity="1"><g transform="translate(1098.940059, 413.639944)"><g><path d="M 75.484375 1.75 C 64.328125 1.75 54.582031 -0.75 46.25 -5.75 C 37.914062 -10.75 30.957031 -17.5 25.375 -26 C 19.789062 -34.5 15.625 -44.035156 12.875 -54.609375 C 10.125 -65.191406 8.75 -76.066406 8.75 -87.234375 C 8.75 -98.398438 10.125 -109.316406 12.875 -119.984375 C 15.625 -130.648438 19.789062 -140.234375 25.375 -148.734375 C 30.957031 -157.234375 37.914062 -164.023438 46.25 -169.109375 C 54.582031 -174.191406 64.328125 -176.734375 75.484375 -176.734375 C 86.648438 -176.734375 96.398438 -174.191406 104.734375 -169.109375 C 113.066406 -164.023438 120.023438 -157.234375 125.609375 -148.734375 C 131.191406 -140.234375 135.398438 -130.648438 138.234375 -119.984375 C 141.066406 -109.316406 142.484375 -98.398438 142.484375 -87.234375 C 142.484375 -76.066406 141.066406 -65.191406 138.234375 -54.609375 C 135.398438 -44.035156 131.191406 -34.5 125.609375 -26 C 120.023438 -17.5 113.066406 -10.75 104.734375 -5.75 C 96.398438 -0.75 86.648438 1.75 75.484375 1.75 Z M 75.484375 -151.734375 C 65.992188 -151.734375 58.289062 -148.773438 52.375 -142.859375 C 46.457031 -136.941406 42.082031 -129.109375 39.25 -119.359375 C 36.414062 -109.609375 35 -98.898438 35 -87.234375 C 35 -76.234375 36.414062 -65.859375 39.25 -56.109375 C 42.082031 -46.367188 46.457031 -38.414062 52.375 -32.25 C 58.289062 -26.082031 65.992188 -23 75.484375 -23 C 84.984375 -23 92.734375 -26.082031 98.734375 -32.25 C 104.734375 -38.414062 109.191406 -46.367188 112.109375 -56.109375 C 115.023438 -65.859375 116.484375 -76.234375 116.484375 -87.234375 C 116.484375 -98.898438 115.023438 -109.609375 112.109375 -119.359375 C 109.191406 -129.109375 104.734375 -136.941406 98.734375 -142.859375 C 92.734375 -148.773438 84.984375 -151.734375 75.484375 -151.734375 Z M 75.484375 -151.734375 "/></g></g></g></svg>